<?xml version="1.0" encoding="UTF-8" standalone="no"?>
<!-- Created with Inkscape (http://www.inkscape.org/) -->

<svg
   xmlns:dc="http://purl.org/dc/elements/1.1/"
   xmlns:cc="http://creativecommons.org/ns#"
   xmlns:rdf="http://www.w3.org/1999/02/22-rdf-syntax-ns#"
   xmlns:svg="http://www.w3.org/2000/svg"
   xmlns="http://www.w3.org/2000/svg"
   xmlns:sodipodi="http://sodipodi.sourceforge.net/DTD/sodipodi-0.dtd"
   xmlns:inkscape="http://www.inkscape.org/namespaces/inkscape"
   width="764.70715"
   height="575.75037"
   id="svg4150"
   version="1.1"
   inkscape:version="0.47 r22583"
   sodipodi:docname="New document 2">
  <defs
     id="defs4152">
    <inkscape:perspective
       sodipodi:type="inkscape:persp3d"
       inkscape:vp_x="0 : 495 : 1"
       inkscape:vp_y="0 : 1000 : 0"
       inkscape:vp_z="765 : 495 : 1"
       inkscape:persp3d-origin="382.5 : 330 : 1"
       id="perspective4159" />
    <inkscape:perspective
       id="perspective4240"
       inkscape:persp3d-origin="0.5 : 0.33333333 : 1"
       inkscape:vp_z="1 : 0.5 : 1"
       inkscape:vp_y="0 : 1000 : 0"
       inkscape:vp_x="0 : 0.5 : 1"
       sodipodi:type="inkscape:persp3d" />
    <inkscape:perspective
       id="perspective4588"
       inkscape:persp3d-origin="0.5 : 0.33333333 : 1"
       inkscape:vp_z="1 : 0.5 : 1"
       inkscape:vp_y="0 : 1000 : 0"
       inkscape:vp_x="0 : 0.5 : 1"
       sodipodi:type="inkscape:persp3d" />
    <inkscape:perspective
       id="perspective5379"
       inkscape:persp3d-origin="0.5 : 0.33333333 : 1"
       inkscape:vp_z="1 : 0.5 : 1"
       inkscape:vp_y="0 : 1000 : 0"
       inkscape:vp_x="0 : 0.5 : 1"
       sodipodi:type="inkscape:persp3d" />
    <filter
       color-interpolation-filters="sRGB"
       inkscape:collect="always"
       x="-0.019371765"
       width="1.0387435"
       y="-0.12620001"
       height="1.2524"
       id="filter6628-3">
      <feGaussianBlur
         inkscape:collect="always"
         stdDeviation="0.16925826"
         id="feGaussianBlur6630-4" />
    </filter>
  </defs>
  <sodipodi:namedview
     inkscape:document-units="in"
     pagecolor="#ffffff"
     bordercolor="#666666"
     borderopacity="1.0"
     inkscape:pageopacity="0.0"
     inkscape:pageshadow="2"
     inkscape:zoom="0.50911688"
     inkscape:cx="-37.228291"
     inkscape:cy="480.69036"
     inkscape:current-layer="layer1"
     id="namedview4154"
     showgrid="false"
     inkscape:window-width="1280"
     inkscape:window-height="962"
     inkscape:window-x="-8"
     inkscape:window-y="-8"
     inkscape:window-maximized="1" />
  <metadata
     id="metadata4156">
    <rdf:RDF>
      <cc:Work
         rdf:about="">
        <dc:format>image/svg+xml</dc:format>
        <dc:type
           rdf:resource="http://purl.org/dc/dcmitype/StillImage" />
        <dc:title></dc:title>
      </cc:Work>
    </rdf:RDF>
  </metadata>
  <g
     inkscape:label="Layer 1"
     inkscape:groupmode="layer"
     id="layer1"
     transform="translate(-1.6447181,-409.47073)">
    <g
       id="g5563"
       transform="matrix(2.8983764,0,0,2.8983764,1141.1605,-168.1287)">
      <path
         id="path3830-1"
         d="m -200.03501,200.06081 c -1.45079,0.083 -2.35212,0.52115 -2.4375,1.375 -0.54647,5.46462 10.37336,23.51852 8.1875,27.34375 -4.32687,9.04118 -6.34877,17.28787 -13.59375,24.15625 0.93787,-0.84126 1.81276,-1.67826 2.59375,-2.5625 -0.12819,0.15147 -0.2708,0.28978 -0.40625,0.4375 1.14012,0.78975 1.21873,1.08196 1.21875,2.21875 0,1.4017 -0.0692,1.46262 -1.75,2.40625 -0.95443,0.53583 -2.17339,1.09632 -2.71875,1.21875 -0.46824,0.10512 -0.99182,0.2155 -1.34375,0.3125 0.23603,-0.92764 0.67568,-1.9532 1.375,-3.125 -0.22568,0.19664 -0.4209,0.39954 -0.65625,0.59375 -8.09504,13.49174 15.84621,10.39186 19.125,12.03125 3.27878,1.63938 13.11306,-2.72288 18.03125,-8.1875 4.91815,-5.46462 12.55919,-23.49469 8.1875,-37.15625 -3.68861,-11.52693 -27.97825,-21.51052 -35.8125,-21.0625 z"
         style="fill:#ffffff;fill-opacity:1;fill-rule:evenodd;stroke:#000000;stroke-width:1.52499998;stroke-miterlimit:4;stroke-opacity:1;stroke-dasharray:none" />
      <path
         sodipodi:nodetypes="cccsssccsscssscssc"
         id="path3880-1"
         d="m -184.30413,258.6861 2.90367,11.03396 9.87249,6.67844 c 0,0 8.48804,-1.15206 14.228,0.29037 5.93523,1.4915 11.65173,3.37063 15.09909,5.22661 4.95837,2.66947 10.9897,7.51207 11.90506,12.77616 0.77802,4.47429 -0.53196,11.71566 -4.06514,14.228 l -6.67845,-0.87111 c 0.64853,0.21618 -11.13397,4.03181 -16.26056,3.48441 -3.46472,-0.36995 -16.55094,-4.06514 -23.51975,-8.13028 -6.96882,-4.06514 -11.32432,-6.38808 -11.32432,-6.38808 0,0 -1.45184,8.42065 -3.48441,11.32432 -2.03257,2.90367 -17.13167,12.77616 -18.58351,13.3569 -1.45183,0.58073 -29.32709,1.7422 -32.52113,-2.32294 -3.19404,-4.06514 8.42065,-5.80735 8.42065,-5.80735 0,0 26.71379,-7.83991 31.35967,-15.38946 4.64587,-7.54955 10.74358,-33.97297 11.90505,-36.29591 1.16147,-2.32294 11.32433,-3.48441 10.74359,-3.19404 z"
         style="fill:#ffffff;fill-opacity:1;fill-rule:evenodd;stroke:#000000;stroke-width:1.52499998;stroke-miterlimit:4;stroke-opacity:1;stroke-dasharray:none" />
      <path
         id="path3555-3"
         d="m -341.15731,274.17758 c -5.41665,0.12518 -27.71356,1.14648 -37.90959,9.15765 -11.65259,9.15561 -13.32719,13.30754 -13.32719,19.13385 0,5.82629 36.62283,8.33509 54.10174,0.84414 17.4789,-7.49097 15.83403,-19.97799 15.83403,-19.97799 l -17.49673,-9.15765 c 0,0 -0.42845,-0.0179 -1.20226,0 z"
         style="fill:#ffffff;fill-opacity:1;fill-rule:evenodd;stroke:#000000;stroke-width:1.52499998;stroke-miterlimit:4;stroke-opacity:1;stroke-dasharray:none" />
      <path
         id="path3673-8"
         d="m -344.93114,209.54983 c -0.49869,-0.0217 -1.04476,0.039 -1.72095,0.17427 -3.60634,0.72127 -4.31805,11.54354 -2.87552,18.75621 1.44254,7.21268 9.36511,14.43815 16.57779,15.88069 7.21267,1.44252 14.42353,-6.50871 13.70226,-7.95124 0,-1e-5 -7.92495,-17.30411 -15.8589,-21.63172 -6.44633,-3.51618 -7.66369,-5.13435 -9.82468,-5.22821 z"
         style="fill:#ffffff;fill-opacity:1;stroke:#000000;stroke-width:1.52499998;stroke-miterlimit:4;stroke-opacity:1;stroke-dasharray:none" />
      <path
         id="path4795-7"
         d="m -170.42864,283.86066 c -6e-5,0 -4.7727,11.03417 -6.5625,7.15625 -1.78987,-3.87792 -3.28125,-6.28125 -3.28125,-6.28125 -6e-5,0 -2.38343,6.87779 -7.15625,9.5625 -1.70399,0.95847 -2.75067,2.01701 -3.40625,3 1.60396,0.87336 4.59121,2.50895 9.71875,5.5 6.96878,4.06514 20.06654,7.75506 23.53125,8.125 5.12656,0.5474 16.89854,-3.25257 16.25,-3.46875 l 6.6875,0.84375 c 2.90223,-2.06371 4.27363,-7.30525 4.25,-11.59375 -0.0588,0.0442 -0.12808,0.0806 -0.1875,0.125 -0.68138,0.50966 -1.37558,1.00784 -2.09375,1.5 -0.31594,0.21651 -0.62544,0.42357 -0.9375,0.625 -0.19449,0.12554 -0.40288,0.25757 -0.59375,0.375 -0.18543,0.11459 -0.3819,0.23798 -0.5625,0.34375 -0.37138,0.21502 -0.72206,0.39744 -1.0625,0.5625 -0.0828,0.0401 -0.16952,0.0883 -0.25,0.125 -0.24481,0.11335 -0.49891,0.23549 -0.71875,0.3125 -0.008,0.003 -0.0228,-0.003 -0.0312,0 -0.0241,0.008 -0.0387,0.0234 -0.0625,0.0312 -0.25424,0.0812 -0.5088,0.13526 -0.71875,0.15625 -2.00151,0.20015 -3.98452,-2.42139 -5.8125,-4.4375 -0.19529,-0.21539 -0.40289,-0.42757 -0.59375,-0.625 -0.68521,-0.70879 -1.35462,-1.2697 -1.96875,-1.5 -0.091,-0.0341 -0.17678,-0.0517 -0.28125,-0.0625 -0.12816,-0.0132 -0.25698,-0.0172 -0.40625,0 -0.0201,0.002 -0.042,-0.003 -0.0625,0 -0.0305,0.004 -0.0631,0.0252 -0.0937,0.0312 -0.1298,0.0255 -0.26012,0.0493 -0.40625,0.0937 -0.3463,0.10545 -0.74052,0.26769 -1.15625,0.46875 -0.0187,0.009 -0.0435,0.022 -0.0625,0.0312 -0.1471,0.072 -0.31394,0.16889 -0.46875,0.25 -0.2897,0.15279 -0.56969,0.29737 -0.875,0.46875 -0.74924,0.42057 -1.53986,0.85951 -2.40625,1.34375 -0.0894,0.05 -0.15956,0.10629 -0.25,0.15625 -0.19372,0.109 -0.39335,0.2052 -0.59375,0.3125 -0.54682,0.29278 -1.11245,0.57626 -1.6875,0.84375 -0.3486,0.16215 -0.70598,0.32372 -1.0625,0.46875 -1.21124,0.49273 -2.43196,0.88615 -3.6875,1.03125 -0.007,0.003 -0.0247,-0.003 -0.0312,0 -0.0206,0.002 -0.0419,-0.002 -0.0625,0 -0.1161,0.0403 -0.23376,0.0597 -0.34375,0.0312 -0.30001,0.0215 -0.60676,0.0393 -0.90625,0.0312 -0.0103,-1.8e-4 -0.0209,2.1e-4 -0.0312,0 -0.41311,-0.009 -0.81462,-0.0515 -1.21875,-0.125 -0.0962,-0.0175 -0.18638,-0.0417 -0.28125,-0.0625 -0.23391,-0.0512 -0.46164,-0.11701 -0.6875,-0.1875 -0.0129,-0.004 -0.0184,-0.0272 -0.0312,-0.0312 -0.17972,-0.0571 -0.35676,-0.11886 -0.53125,-0.1875 -0.26855,-0.10555 -0.52557,-0.21248 -0.78125,-0.34375 -0.0209,-0.0106 -0.0417,-0.0204 -0.0625,-0.0312 -0.33025,-0.17277 -0.66095,-0.3819 -0.96875,-0.59375 -0.28529,-0.19636 -0.5472,-0.39871 -0.8125,-0.625 -0.0621,-0.0528 -0.12652,-0.10192 -0.1875,-0.15625 -0.24244,-0.21681 -0.4631,-0.4484 -0.6875,-0.6875 -0.0965,-0.1022 -0.18812,-0.20657 -0.28125,-0.3125 -0.0922,-0.10551 -0.19244,-0.20353 -0.28125,-0.3125 -0.24962,-0.30439 -0.49617,-0.60928 -0.71875,-0.9375 -0.0548,-0.0811 -0.10318,-0.16761 -0.15625,-0.25 -0.22996,-0.3553 -0.42719,-0.71836 -0.625,-1.09375 -0.22583,-0.42855 -0.44272,-0.86588 -0.625,-1.3125 -0.1796,-0.44004 -0.33312,-0.89449 -0.46875,-1.34375 -9.6e-4,-0.003 -0.0303,0.003 -0.0312,0 -0.003,-0.01 0.003,-0.0214 0,-0.0312 -0.053,-0.17738 -0.079,-0.35337 -0.125,-0.53125 -0.0218,-0.0957 -0.0742,-0.18553 -0.0937,-0.28125 -0.0295,-0.12491 -0.0431,-0.2501 -0.0625,-0.375 -0.024,-0.11504 -0.0415,-0.22894 -0.0625,-0.34375 -0.14432,-0.78887 -0.22299,-1.56002 -0.21875,-2.3125 2.1e-4,-0.13654 0.026,-0.27178 0.0312,-0.40625 0.0104,-0.24034 0.004,-0.4862 0.0312,-0.71875 0.0164,-0.14691 0.0393,-0.29419 0.0625,-0.4375 0.0371,-0.2259 0.1024,-0.44052 0.15625,-0.65625 0.0177,-0.0707 0.0117,-0.14927 0.0312,-0.21875 0.0455,-0.59731 0.125,-1.03125 0.125,-1.03125 z m 39.5,8.90625 c -0.0153,0.0146 -0.0471,0.0166 -0.0625,0.0312 0.0379,0.0863 0.0896,0.16337 0.125,0.25 -0.0284,-0.0917 -0.0315,-0.18877 -0.0625,-0.28125 z"
         style="fill:#ffffff;fill-opacity:1;fill-rule:evenodd;stroke:#000000;stroke-width:1.52499998;stroke-miterlimit:4;stroke-opacity:1;stroke-dasharray:none" />
      <path
         id="path4788-4"
         d="m -197.77797,299.30878 c -0.71859,0.0284 -1.46039,0.12002 -2.1875,0.34375 -3.87794,1.19321 -9.24715,9.56244 -9.84375,12.84375 -0.28245,1.55343 1.06053,2.96681 2.53125,4.03125 4.72784,-3.18515 10.17598,-7.11299 11.34375,-8.78125 1.1693,-1.67043 2.09968,-5.05021 2.71875,-7.71875 -1.09775,-0.37653 -2.75922,-0.79002 -4.5625,-0.71875 z"
         style="color:#000000;fill:#ffffff;fill-opacity:1;fill-rule:evenodd;stroke:#000000;stroke-width:1.52499998;stroke-miterlimit:4;stroke-opacity:1;stroke-dasharray:none;marker:none;visibility:visible;display:inline;overflow:visible;enable-background:accumulate" />
      <path
         id="path4729-27"
         d="m -184.55364,258.64191 c -1.57206,0.0596 -9.48371,1.21743 -10.5,3.25 -1.16147,2.32294 -7.2604,28.7317 -11.90625,36.28125 -1.30809,2.12564 -4.37563,4.2598 -8.09375,6.25 l -8.96875,8.40625 c -3e-5,0 8.86146,-0.9342 16.40625,-5.25 2.06141,-3.4401 5.16327,-7.17044 7.65625,-7.9375 0.23833,-0.0733 0.4786,-0.10888 0.71875,-0.15625 2.0048,-4.11241 0.60373,-6.99867 4.0625,-8.34375 4.76294,-1.85225 4.2415,4.48982 6.09375,1.84375 0.45421,-0.64887 1.77605,-0.55032 3.5,-0.0312 3.54117,-3.1306 5.31245,-8.21875 5.3125,-8.21875 0,0 1.49138,2.40333 3.28125,6.28125 1.7898,3.87792 6.56244,-7.15625 6.5625,-7.15625 0,0 -0.0795,0.43394 -0.125,1.03125 -0.0196,0.0695 -0.0136,0.14807 -0.0312,0.21875 -0.0441,0.17674 -0.0922,0.34759 -0.125,0.53125 -0.009,0.0424 -0.0242,0.0819 -0.0312,0.125 -0.0232,0.14331 -0.0461,0.29059 -0.0625,0.4375 -0.005,0.0404 0.003,0.0839 0,0.125 -0.0198,0.19337 -0.0226,0.39515 -0.0312,0.59375 -0.003,0.0727 -0.0296,0.14542 -0.0312,0.21875 -0.006,0.0622 1e-4,0.12485 0,0.1875 -1.7e-4,0.0304 -1e-4,0.0633 0,0.0937 0.002,0.72328 0.0805,1.46292 0.21875,2.21875 0.021,0.11481 0.0385,0.22871 0.0625,0.34375 0.0194,0.1249 0.033,0.25009 0.0625,0.375 0.0195,0.0957 0.0719,0.18555 0.0937,0.28125 0.046,0.17788 0.072,0.35387 0.125,0.53125 0.003,0.01 -0.003,0.0214 0,0.0312 9.6e-4,0.003 0.0303,-0.003 0.0312,0 0.13563,0.44926 0.28915,0.90371 0.46875,1.34375 0.18228,0.44662 0.39917,0.88395 0.625,1.3125 0.18704,0.35494 0.37795,0.69413 0.59375,1.03125 0.0125,0.0197 0.0185,0.0428 0.0312,0.0625 0.0531,0.0824 0.10149,0.16888 0.15625,0.25 0.0165,0.0243 0.0457,0.0384 0.0625,0.0625 0.20834,0.30306 0.42466,0.5926 0.65625,0.875 0.0888,0.10897 0.18906,0.20699 0.28125,0.3125 0.0442,0.0503 0.0801,0.10682 0.125,0.15625 0.0489,0.0548 0.1056,0.10261 0.15625,0.15625 0.2244,0.2391 0.44506,0.47069 0.6875,0.6875 0.039,0.0348 0.0855,0.0596 0.125,0.0937 0.0227,0.0185 0.0401,0.0435 0.0625,0.0625 0.0695,0.0593 0.1492,0.0999 0.21875,0.15625 1.15051,0.92865 2.45376,1.63648 3.9375,1.90625 6.56264,1.19319 13.70734,-6.2699 16.09375,-5.375 2.38641,0.8949 5.39199,6.8608 8.375,6.5625 1.67961,-0.16796 4.91668,-2.41086 7.46875,-4.34375 -0.0354,-0.52858 -0.0736,-1.02485 -0.15625,-1.5 -0.91536,-5.26409 -6.9479,-10.11177 -11.90625,-12.78125 -3.25562,-1.75274 -8.54939,-3.51837 -14.125,-4.96875 l -0.4375,-0.4375 c -0.17843,-0.0456 -0.35236,-0.08 -0.53125,-0.125 -5.73996,-1.44243 -14.21878,-0.31251 -14.21875,-0.3125 l -9.875,-6.65625 -2.9063,-11.0624 c -0.0299,-0.0121 -0.10964,-0.0366 -0.25,-0.0312 z"
         style="fill:#ffffff;fill-opacity:1;fill-rule:evenodd;stroke:#000000;stroke-width:1.52499998;stroke-miterlimit:4;stroke-opacity:1;stroke-dasharray:none" />
      <path
         id="path4758-7"
         d="m -145.63557,300.11427 c 0,0.94283 -0.81622,1.70804 -1.82191,1.70804 -1.0057,0 -1.82191,-0.76521 -1.82191,-1.70804 0,-0.94284 0.81621,-1.70804 1.82191,-1.70804 1.00569,0 1.82191,0.7652 1.82191,1.70804 z"
         style="color:#000000;fill:#ffffff;fill-opacity:1;fill-rule:evenodd;stroke:#000000;stroke-width:1.52499998;stroke-miterlimit:4;stroke-opacity:1;stroke-dasharray:none;marker:none;visibility:visible;display:inline;overflow:visible;enable-background:accumulate" />
      <path
         id="path4760-9"
         d="m -147.39514,299.6659 c 0,0.44393 -0.29454,0.80421 -0.65745,0.80421 -0.36291,0 -0.65745,-0.36028 -0.65745,-0.80421 0,-0.44392 0.29454,-0.8042 0.65745,-0.8042 0.36291,0 0.65745,0.36028 0.65745,0.8042 z"
         style="color:#000000;fill:#ffffff;fill-opacity:1;fill-rule:evenodd;stroke:#000000;stroke-width:1.52499998;stroke-miterlimit:4;stroke-opacity:1;stroke-dasharray:none;marker:none;visibility:visible;display:inline;overflow:visible;enable-background:accumulate" />
      <path
         id="path6173-3"
         d="m -155.45989,305.17316 c -1.98907,0.0593 -4.71871,1.36504 -5.5,1.75 1.05615,-0.42145 3.18316,-0.77707 5,-0.75 2.72581,0.0406 5.2313,1.66181 7.3125,2.21875 1.33347,0.35685 4.523,0.39944 5.125,0.65625 1.6124,-0.51977 2.66929,-0.93315 2.46875,-1 l 1.0625,0.125 c -0.003,-0.0212 0.003,-0.0411 0,-0.0625 -1e-5,0 -4.87948,-0.49426 -7.625,-1 -2.50064,-0.46063 -4.90686,-1.65246 -6.9375,-1.84375 -0.26521,-0.0733 -0.57561,-0.10361 -0.90625,-0.0937 z"
         style="fill:#ffffff;fill-opacity:1;fill-rule:evenodd;stroke:#000000;stroke-width:1.52499998;stroke-miterlimit:4;stroke-opacity:1;stroke-dasharray:none" />
      <path
         id="path6178-1"
         d="m -155.82134,305.81943 c -1.21134,0.007 -2.52091,0.2185 -3.59375,0.46875 -0.59381,0.25267 -1.11457,0.49668 -1.375,0.625 1.05615,-0.42145 3.18316,-0.77707 5,-0.75 2.72581,0.0406 5.2313,1.66181 7.3125,2.21875 1.33347,0.35685 4.523,0.39944 5.125,0.65625 1.6124,-0.51977 2.66929,-0.93315 2.46875,-1 l 1.0625,0.125 c -0.003,-0.0212 0.003,-0.0411 0,-0.0625 0,0 -1.0498,-0.11921 -1.9375,-0.21875 -0.42248,0.16941 -0.90631,0.33605 -1.5625,0.5625 -0.60713,-0.24444 -3.78453,-0.20176 -5.125,-0.53125 -2.09216,-0.51422 -4.64894,-2.10891 -7.375,-2.09375 z"
         style="fill:#ffffff;fill-opacity:1;fill-rule:evenodd;stroke:#000000;stroke-width:1.52499998;stroke-miterlimit:4;stroke-opacity:1;stroke-dasharray:none;filter:url(#filter6628-3)" />
      <path
         sodipodi:nodetypes="cscsssccscsssssssssssssccsssssssssssssssssscccsssssssssssssssccsssssssssssssssssscccsssssssssssssssccssssssssssssssssssccccsccsssssssssssccsssssssssscssssssccccccccsssssssssssccsssssssssscssssscc"
         id="path7724-9"
         d="m -189.58489,259.42316 c -2.44449,0.54871 -4.92935,1.38995 -5.46875,2.46875 -0.82987,1.65974 -4.179,15.59599 -7.71875,26.1875 1.97081,2.31054 4.50964,4.65383 6,3.3125 2.64607,-2.38147 2.39979,-14.53496 4.78125,-19.5625 2.38147,-5.02754 6.45309,-3.22192 7.91679,-6.625 1.29819,-3.0183 -0.30278,-5.09201 -5.51054,-5.78125 z m 10.9375,11.03125 c -0.50129,-10e-4 -1.00087,0.0454 -1.5,0.0937 -1.00453,0.11457 -1.99118,0.41081 -2.96875,0.65625 -0.4423,0.12329 -0.86082,0.28472 -1.28125,0.46875 -0.45531,0.20178 -0.89414,0.44886 -1.3125,0.71875 -0.40553,0.25991 -0.79387,0.58908 -1.15625,0.90625 -0.33429,0.29853 -0.64472,0.59812 -0.9375,0.9375 -0.28728,0.3399 -0.529,0.72712 -0.78125,1.09375 -0.24232,0.35263 -0.47042,0.69381 -0.6875,1.0625 -0.20659,0.35235 -0.40541,0.73132 -0.59375,1.09375 -0.18779,0.36219 -0.35827,0.72426 -0.53125,1.09375 -0.19846,0.43828 -0.40917,0.86812 -0.59375,1.3125 -0.22137,0.53147 -0.38893,1.08698 -0.59375,1.625 -0.17488,0.45737 -0.37021,0.91257 -0.53125,1.375 -0.14167,0.41035 -0.2773,0.80423 -0.40625,1.21875 -0.14182,0.45216 -0.27165,0.92064 -0.40625,1.375 -0.1024,0.34438 -0.2167,0.68499 -0.3125,1.03125 l 1.65625,-0.31245 c 0.0951,-0.3452 0.18018,-0.68773 0.28125,-1.03125 0.13398,-0.45315 0.29271,-0.92515 0.4375,-1.375 0.13467,-0.41172 0.26428,-0.80946 0.40625,-1.21875 0.15921,-0.45985 0.32909,-0.91935 0.5,-1.375 0.20303,-0.53783 0.40008,-1.06468 0.625,-1.59375 0.18932,-0.4415 0.38686,-0.91015 0.59375,-1.34375 0.1736,-0.36716 0.34299,-0.7339 0.53125,-1.09375 0.18888,-0.35928 0.38693,-0.71325 0.59375,-1.0625 0.21709,-0.36454 0.44542,-0.71402 0.6875,-1.0625 0.25329,-0.36093 0.49101,-0.73045 0.78125,-1.0625 0.29329,-0.33169 0.60225,-0.61701 0.9375,-0.90625 0.36185,-0.3095 0.753,-0.62182 1.15625,-0.875 0.4206,-0.26211 0.85593,-0.49459 1.3125,-0.6875 0.27785,-0.11756 0.55777,-0.21755 0.84375,-0.3125 -0.11394,0.0177 -0.24549,0.037 -0.375,0.0625 0.18448,-0.0432 0.0139,-0.0227 0.8125,-0.21875 -0.15045,0.0395 -0.29006,0.1073 -0.4375,0.15625 0.0569,-0.009 0.14049,-0.026 0.1875,-0.0312 0.49201,-0.0564 0.97355,-0.10059 1.46875,-0.0937 l 1.59375,-0.625 z m 1.53125,1.59375 c -0.44587,-10e-4 -0.8998,0.0195 -1.34375,0.0625 -0.8935,0.1019 -1.75552,0.37546 -2.625,0.59375 -0.39338,0.10966 -0.78231,0.24258 -1.15625,0.40625 -0.40495,0.17948 -0.78416,0.41621 -1.15625,0.65625 -0.36071,0.23117 -0.67771,0.49913 -1,0.78125 -0.29733,0.26551 -0.58332,0.57316 -0.84375,0.875 -0.25552,0.30232 -0.46315,0.61141 -0.6875,0.9375 -0.21553,0.31363 -0.46315,0.64082 -0.65625,0.96875 -0.18371,0.31337 -0.33249,0.61515 -0.5,0.9375 -0.16705,0.32213 -0.31489,0.64011 -0.46875,0.96875 -0.17654,0.38983 -0.36707,0.79228 -0.53125,1.1875 -0.19687,0.47271 -0.34906,0.95898 -0.53125,1.4375 -0.15556,0.4068 -0.32552,0.80746 -0.46875,1.21875 -0.12602,0.36499 -0.22903,0.75631 -0.34375,1.125 -0.12613,0.40217 -0.25526,0.78339 -0.375,1.1875 -0.0911,0.30632 -0.19605,0.59828 -0.28125,0.90625 l 1.46875,-0.28125 c 0.0846,-0.30705 0.16009,-0.60072 0.25,-0.90625 0.11917,-0.40305 0.24622,-0.7874 0.375,-1.1875 0.11982,-0.36619 0.24871,-0.72973 0.375,-1.09375 0.14165,-0.40901 0.28549,-0.84473 0.4375,-1.25 0.18061,-0.47836 0.36243,-0.93568 0.5625,-1.40625 0.16842,-0.39269 0.34722,-0.80184 0.53125,-1.1875 0.15445,-0.32655 0.30131,-0.64869 0.46875,-0.96875 0.16799,-0.31956 0.34734,-0.62686 0.53125,-0.9375 0.1931,-0.32424 0.37846,-0.65881 0.59375,-0.96875 0.22528,-0.32103 0.49183,-0.64219 0.75,-0.9375 0.26087,-0.29502 0.5143,-0.55524 0.8125,-0.8125 0.32187,-0.27529 0.64137,-0.52481 1,-0.75 0.37409,-0.23313 0.75017,-0.48466 1.15625,-0.65625 0.21913,-0.0927 0.46289,-0.17244 0.6875,-0.25 -0.11207,0.019 -0.22535,0.0383 -0.34375,0.0625 0.12655,-0.0292 0.014,-0.0227 0.8125,-0.21875 -0.16331,0.0429 -0.30939,0.10122 -0.46875,0.15625 0.0818,-0.0139 0.18647,-0.0242 0.25,-0.0312 0.4376,-0.0501 0.87205,-0.0998 1.3125,-0.0937 l 1.40625,-0.53125 z m 2.5625,1.09375 c -0.41818,-10e-4 -0.80238,0.0222 -1.21875,0.0625 -0.83793,0.0956 -1.68455,0.35778 -2.5,0.5625 -0.36894,0.10283 -0.7118,0.25275 -1.0625,0.40625 -0.37974,0.16831 -0.74478,0.36863 -1.09375,0.59375 -0.33828,0.21682 -0.63523,0.48542 -0.9375,0.75 -0.27888,0.249 -0.53702,0.52943 -0.78125,0.8125 -0.23967,0.28353 -0.44584,0.5692 -0.65625,0.875 -0.2021,0.29414 -0.41266,0.59871 -0.59375,0.90625 -0.17229,0.29389 -0.3429,0.60393 -0.5,0.90625 -0.15662,0.30211 -0.2932,0.59805 -0.4375,0.90625 -0.16551,0.36558 -0.31476,0.72309 -0.46875,1.09375 -0.18461,0.44331 -0.36039,0.89497 -0.53125,1.34375 -0.14588,0.38151 -0.30316,0.77052 -0.4375,1.15625 -0.11818,0.34228 -0.20494,0.68547 -0.3125,1.03125 -0.11831,0.37716 -0.23147,0.74603 -0.34375,1.125 -0.0854,0.28728 -0.17008,0.58618 -0.25,0.875 l 1.375,-0.25 c 0.0793,-0.28796 0.13442,-0.58847 0.21875,-0.875 0.11174,-0.378 0.25425,-0.74977 0.375,-1.125 0.11238,-0.34343 0.22531,-0.68985 0.34375,-1.03125 0.13282,-0.38359 0.23241,-0.77619 0.375,-1.15625 0.16933,-0.44863 0.3749,-0.90243 0.5625,-1.34375 0.15792,-0.36828 0.32741,-0.73206 0.5,-1.09375 0.14485,-0.30625 0.28045,-0.60608 0.4375,-0.90625 0.15753,-0.2997 0.29626,-0.58365 0.46875,-0.875 0.18109,-0.30407 0.39183,-0.61557 0.59375,-0.90625 0.21126,-0.30108 0.41414,-0.59803 0.65625,-0.875 0.24463,-0.27668 0.50159,-0.53998 0.78125,-0.78125 0.30183,-0.25817 0.6324,-0.50758 0.96875,-0.71875 0.35083,-0.21865 0.71291,-0.43281 1.09375,-0.59375 0.17565,-0.0743 0.32073,-0.12303 0.5,-0.1875 -0.0703,0.0131 -0.11707,-0.0144 -0.1875,0 0.12319,-0.0285 0.0108,-0.006 0.75,-0.1875 -0.1603,0.0421 -0.34375,0.10177 -0.5,0.15625 0.0931,-0.0164 0.21064,-0.0546 0.28125,-0.0625 0.41041,-0.047 0.80569,-0.0682 1.21875,-0.0625 l 1.3125,-0.53125 z m 2.25,1.59375 -1.28125,0.0937 c -0.0539,0.009 -0.10156,0.0226 -0.15625,0.0312 -0.77236,0.19627 -0.53069,0.13538 -0.125,0 -0.19049,0.0268 -0.3692,0.0549 -0.5625,0.0625 -0.80778,0.0958 -1.63601,0.27604 -2.375,0.625 -0.3128,0.15169 -0.61955,0.33303 -0.90625,0.53125 -0.32192,0.22202 -0.62547,0.44449 -0.90625,0.71875 -0.28035,0.27243 -0.54225,0.56464 -0.78125,0.875 -0.24628,0.32348 -0.47704,0.65159 -0.6875,1 -0.25423,0.42223 -0.48958,0.84473 -0.71875,1.28125 -0.21363,0.41614 -0.43498,0.85361 -0.625,1.28125 -0.18829,0.41697 -0.35775,0.82665 -0.53125,1.25 -0.15714,0.39615 -0.32144,0.78756 -0.46875,1.1875 -0.13008,0.35835 -0.25343,0.73242 -0.375,1.09375 -0.13008,0.38755 -0.25561,0.76526 -0.375,1.15625 -0.14715,0.48121 -0.28312,0.9898 -0.4375,1.46875 l 1.53125,-0.3125 c 0.12909,-0.48376 0.25619,-0.95992 0.40625,-1.4375 0.1226,-0.38974 0.24388,-0.76932 0.375,-1.15625 0.12218,-0.36009 0.24464,-0.73658 0.375,-1.09375 0.14437,-0.39906 0.31009,-0.79395 0.46875,-1.1875 0.16837,-0.42298 0.34558,-0.83444 0.53125,-1.25 0.19139,-0.42409 0.41176,-0.83663 0.625,-1.25 0.22615,-0.43575 0.46062,-0.86399 0.71875,-1.28125 0.21233,-0.34317 0.43929,-0.65119 0.6875,-0.96875 0.23915,-0.3043 0.53077,-0.57972 0.8125,-0.84375 0.28244,-0.26558 0.58423,-0.50539 0.90625,-0.71875 0.23888,-0.15947 0.49207,-0.28205 0.75,-0.40625 -0.1393,0.0159 -0.29741,0.0193 -0.4375,0.0312 -0.53568,0.0855 -1.41173,0.31728 1,-0.28125 0.075,-0.0186 -0.12073,0.0284 -0.28125,0.0937 -0.0471,0.0192 -0.0787,0.0413 -0.125,0.0625 -0.0539,0.0246 -0.10293,0.0681 -0.15625,0.0937 0.30252,-0.0346 0.60737,-0.0917 0.90625,-0.15625 0.75745,-0.1558 1.49217,-0.3359 2.21875,-0.59375 z m 1.71875,1.46875 c -0.20621,0.05 -0.41627,0.0928 -0.625,0.125 l 0.21875,0 c 0.20575,-0.0531 0.0549,-0.0338 0.40625,-0.125 z m -0.40625,0.125 c -1.13257,0.2921 -0.67778,0.1442 -0.25,0 -0.19351,0.0283 -0.36602,0.0548 -0.5625,0.0625 -0.77456,0.0919 -1.57267,0.25911 -2.28125,0.59375 -0.29994,0.14544 -0.60008,0.30994 -0.875,0.5 -0.30867,0.21288 -0.60575,0.45578 -0.875,0.71875 -0.26886,0.26124 -0.5208,0.51491 -0.75,0.8125 -0.23617,0.31019 -0.45444,0.63465 -0.65625,0.96875 -0.24375,0.40487 -0.46776,0.83141 -0.6875,1.25 -0.20482,0.39902 -0.41152,0.77745 -0.59375,1.1875 -0.18053,0.39983 -0.33362,0.8128 -0.5,1.21875 -0.15065,0.37988 -0.32747,0.77275 -0.46875,1.15625 -0.12471,0.34362 -0.22723,0.68475 -0.34375,1.03125 -0.12473,0.37162 -0.26052,0.75008 -0.375,1.125 -0.14116,0.46142 -0.25823,0.91572 -0.40625,1.375 l 1.4375,-0.28125 c 0.12379,-0.46388 0.29359,-0.91707 0.4375,-1.375 0.11752,-0.37372 0.21798,-0.75399 0.34375,-1.125 0.11712,-0.34528 0.21876,-0.68875 0.34375,-1.03125 0.13841,-0.38267 0.3166,-0.77888 0.46875,-1.15625 0.1615,-0.40559 0.32196,-0.78904 0.5,-1.1875 0.18353,-0.40666 0.3893,-0.82237 0.59375,-1.21875 0.21686,-0.41784 0.43997,-0.81863 0.6875,-1.21875 0.20358,-0.32905 0.44948,-0.63299 0.6875,-0.9375 0.22931,-0.29179 0.47987,-0.55931 0.75,-0.8125 0.27089,-0.25465 0.56622,-0.48291 0.875,-0.6875 0.23165,-0.15462 0.46852,-0.28615 0.71875,-0.40625 -0.13909,0.0161 -0.26632,0.0506 -0.40625,0.0625 0.16654,-0.0383 0.18184,-0.0629 0.6875,-0.1875 -0.0452,0.0184 -0.0806,0.0422 -0.125,0.0625 -0.0488,0.0223 -0.10785,0.0393 -0.15625,0.0625 0.28447,-0.0329 0.56268,-0.0643 0.84375,-0.125 0.72631,-0.1494 1.45954,-0.31526 2.15625,-0.5625 l -1.21875,0.125 z"
         style="color:#000000;fill:#ffffff;fill-opacity:1;fill-rule:evenodd;stroke:#000000;stroke-width:1.52499998;stroke-miterlimit:4;stroke-opacity:1;stroke-dasharray:none;marker:none;visibility:visible;display:inline;overflow:visible;enable-background:accumulate" />
      <path
         sodipodi:nodetypes="ccccccccccccsczccc"
         id="path6333-8"
         style="fill:#ffffff;fill-opacity:1;fill-rule:evenodd;stroke:#000000;stroke-width:1.52499998;stroke-linecap:butt;stroke-linejoin:miter;stroke-miterlimit:4;stroke-opacity:1;stroke-dasharray:none"
         d="m -339.10499,234.54953 c -5.69253,3.70357 -8.73923,9.41561 -8.07739,13.78943 -4.12767,5.16533 -4.80441,13.0002 -3.69212,19.83773 0,4.70781 4.37153,11.43323 8.07052,15.13223 3.13709,4.42685 7.71204,9.9089 14.79596,13.45086 2.9139,3.17605 6.51666,6.12248 12.10577,8.40679 3.42259,4.97115 11.46365,7.23506 18.49495,8.74306 5.15617,3.66122 10.98487,4.96549 17.48613,5.38036 3.57045,1.69232 8.53541,2.45497 14.79595,2.3539 10.57074,1.96453 20.58932,1.16834 30.26445,-1.34509 5.20415,-1.43318 10.02628,-3.05738 13.45087,-5.38035 11.99819,-4.85695 19.27383,-14.41817 22.19393,-22.19393 3.59617,-12.44057 3.49021,-22.62764 8.85101,-28.44621 6.52444,-7.08162 16.86303,-4.11536 11.67072,-14.0933 0,0 -27.61387,-31.87257 -70.59644,-33.96344 -42.97479,-2.09048 -62.24003,3.86828 -62.24003,3.86828 -5.42361,1.21407 -12.19176,2.90107 -15.13222,7.39797 -6.54941,0.81236 -11.16145,3.76167 -12.44206,7.06171 z" />
      <path
         id="path6337-6"
         style="fill:#ffffff;fill-opacity:1;fill-rule:evenodd;stroke:#000000;stroke-width:1.52499998;stroke-linecap:butt;stroke-linejoin:miter;stroke-miterlimit:4;stroke-opacity:1;stroke-dasharray:none"
         d="m -317.57176,289.2098 c 5.41984,-15.69005 11.54065,-25.38047 18.14385,-35.15372 6.80395,-3.47756 13.60789,-5.74554 20.41184,-6.80394 3.82015,4.64698 6.67999,8.89348 9.29873,14.74188 -4.98956,15.61357 -11.11312,27.12749 -16.55627,41.05047 -13.17139,2.0112 -27.27244,-8.61843 -31.29815,-13.83469 z"
         sodipodi:nodetypes="cccccc" />
      <path
         style="fill:#ffffff;fill-opacity:1;fill-rule:evenodd;stroke:#000000;stroke-width:1.52499998;stroke-linecap:butt;stroke-linejoin:miter;stroke-miterlimit:4;stroke-opacity:1;stroke-dasharray:none"
         d="m -245.74242,217.71263 c -0.57187,0.0121 -1.16181,0.0391 -1.74436,0.0671 -15.13569,5.22353 -25.85774,14.86949 -31.23091,29.85554 3.66767,4.50247 6.44188,8.66636 8.99021,14.35749 -0.0586,0.18339 -0.10882,0.35445 -0.16773,0.53673 7.73402,-5.53051 14.79271,-9.4497 21.03306,-11.87513 4.73023,-8.15822 9.43332,-15.04772 21.56978,-24.05216 -2.3259,-2.41918 -4.78923,-4.82665 -7.71547,-7.24583 -3.0256,-1.38197 -6.73146,-1.72803 -10.73458,-1.64373 z"
         id="path6339-5" />
      <path
         style="fill:#ffffff;fill-opacity:1;fill-rule:evenodd;stroke:#000000;stroke-width:1.52499998;stroke-linecap:butt;stroke-linejoin:miter;stroke-miterlimit:4;stroke-opacity:1;stroke-dasharray:none"
         d="m -269.2243,216.67271 c -2.86277,-0.0137 -5.91919,0.0596 -9.32566,0.20128 -18.51925,3.00536 -24.10402,18.13559 -27.44026,24.72307 2.63983,3.04175 4.97359,7.42463 6.94393,12.27766 6.68241,-3.373 13.34428,-5.56897 20.02669,-6.60847 0.10272,0.12497 0.20057,0.2446 0.30191,0.36901 5.37317,-14.98605 16.09522,-24.63201 31.23091,-29.85554 0.14541,-0.007 0.29014,0.007 0.43608,0 -7.13277,-0.4295 -13.6794,-1.06648 -22.1736,-1.10701 z"
         id="path6341-0" />
      <path
         id="path6343-2"
         style="fill:#ffffff;fill-opacity:1;fill-rule:evenodd;stroke:#000000;stroke-width:1.52499998;stroke-linecap:butt;stroke-linejoin:miter;stroke-miterlimit:4;stroke-opacity:1;stroke-dasharray:none"
         d="m -305.82249,241.2616 c -11.50984,5.9384 -22.25654,13.37792 -30.79481,25.2598 -1.25522,7.28773 10.54318,21.91396 19.08741,22.71034 -0.009,-0.0114 -0.0248,-0.0222 -0.0335,-0.0336 5.41984,-15.69005 11.54494,-25.38248 18.14814,-35.15573 0.12164,-0.0622 0.24737,-0.10638 0.369,-0.16773 -1.97034,-4.85304 -4.30409,-9.23592 -6.94393,-12.27767 0.0499,-0.0985 0.11681,-0.23322 0.16773,-0.33546 z"
         sodipodi:nodetypes="cccccccc" />
      <path
         style="fill:#ffffff;fill-opacity:1;fill-rule:evenodd;stroke:#000000;stroke-width:1.52499998;stroke-linecap:butt;stroke-linejoin:miter;stroke-miterlimit:4;stroke-opacity:1;stroke-dasharray:none"
         d="m -302.66921,219.826 c -3.39675,0.10157 -7.13474,0.95599 -11.94222,3.62292 -24.56284,16.02484 -24.47154,31.4525 -21.93878,42.97184 8.52675,-11.82412 19.24994,-19.2373 30.72772,-25.15916 2.52347,-5.06292 6.34128,-14.62215 15.86704,-20.3286 -4.59145,-0.15063 -8.36804,-1.23696 -12.71376,-1.107 z"
         id="path6345-8" />
      <path
         id="path6347-6"
         style="fill:#ffffff;fill-opacity:1;fill-rule:evenodd;stroke:#000000;stroke-width:1.52499998;stroke-linecap:butt;stroke-linejoin:miter;stroke-miterlimit:4;stroke-opacity:1;stroke-dasharray:none"
         d="m -286.13125,216.40436 c -0.77264,-0.007 -1.53742,0.009 -2.2811,0.0335 -6.54438,0.21232 -11.99364,1.51119 -16.67214,3.58937 0.83063,-0.11702 1.63011,-0.17779 2.41528,-0.20127 4.34572,-0.12996 8.12231,0.95637 12.71376,1.107 3.07965,-1.84487 6.75592,-3.28003 11.17067,-4.02546 l 0,-0.0336 c -2.58614,-0.28272 -5.02857,-0.4489 -7.34647,-0.46963 z"
         sodipodi:nodetypes="cscscccc" />
      <path
         style="fill:#ffffff;fill-opacity:1;fill-rule:evenodd;stroke:#000000;stroke-width:1.52499998;stroke-linecap:butt;stroke-linejoin:miter;stroke-miterlimit:4;stroke-opacity:1;stroke-dasharray:none"
         d="m -248.99633,250.72145 c -6.2068,2.42935 -13.22106,6.31771 -20.89888,11.80803 -4.93282,15.26159 -10.94366,26.65165 -16.30314,40.32174 6.7496,8.62747 15.64268,14.82396 35.08864,9.02376 1.49836,-14.41695 3.71874,-28.55768 11.77449,-40.59011 -3.44905,-7.08425 -6.73433,-14.00078 -9.66111,-20.56342 z"
         id="path6349-0" />
      <path
         style="fill:#ffffff;fill-opacity:1;fill-rule:evenodd;stroke:#000000;stroke-width:1.52499998;stroke-linecap:butt;stroke-linejoin:miter;stroke-miterlimit:4;stroke-opacity:1;stroke-dasharray:none"
         d="m -219.30853,225.96483 c -2.93221,1.8e-4 -5.70112,0.29484 -8.52056,1.03991 -11.73006,8.80449 -16.37492,15.61574 -21.03306,23.64961 -0.0454,0.0176 -0.0886,0.0487 -0.13418,0.0671 2.87007,6.43549 6.08392,13.22033 9.45984,20.16088 6.20908,-5.94171 12.45696,-12.1771 18.1146,-14.79359 4.409,-5.75904 6.62135,-10.89619 17.2424,-18.34942 0.33206,-1.83069 0.27148,-4.44291 0,-7.48065 -2.18416,-1.43912 -4.00168,-2.99558 -7.91674,-3.85774 -2.57807,-0.25339 -4.95154,-0.43623 -7.2123,-0.43609 z"
         id="path6351-2" />
      <path
         style="fill:#ffffff;fill-opacity:1;fill-rule:evenodd;stroke:#000000;stroke-width:1.52499998;stroke-linecap:butt;stroke-linejoin:miter;stroke-miterlimit:4;stroke-opacity:1;stroke-dasharray:none"
         d="m -234.87366,219.49054 c 2.86114,2.37769 5.29492,4.73358 7.58129,7.11166 -0.17764,0.1318 -0.32869,0.27164 -0.50318,0.40254 2.80841,-0.73886 5.5659,-1.03973 8.48702,-1.03991 1.9042,-1.1e-4 3.91918,0.14313 6.0382,0.33546 -7.39624,-3.46712 -14.59229,-5.6593 -21.60333,-6.80975 z"
         id="path6353-4" />
      <path
         style="fill:#ffffff;fill-opacity:1;fill-rule:evenodd;stroke:#000000;stroke-width:1.52499998;stroke-linecap:butt;stroke-linejoin:miter;stroke-miterlimit:4;stroke-opacity:1;stroke-dasharray:none"
         d="m -200.6572,237.26968 c -1.25192,0.0256 -2.35241,0.14644 -3.48874,0.26837 -0.0103,0.0631 -0.0224,0.13988 -0.0335,0.20127 -10.37026,7.27725 -12.73112,12.35089 -16.94049,17.94686 1.12796,8.88374 3.77164,19.05159 8.11801,26.93708 3.13914,-1.85743 5.84972,-2.4323 8.38639,-2.48237 -0.36326,-9.74496 1.28609,-28.01949 24.72307,-30.62708 -3.96587,-3.78616 -7.71552,-8.00679 -12.24412,-10.66749 -3.80567,-1.34439 -6.38068,-1.62038 -8.52057,-1.57664 z"
         id="path6355-8" />
      <path
         style="fill:#ffffff;fill-opacity:1;fill-rule:evenodd;stroke:#000000;stroke-width:1.52499998;stroke-linecap:butt;stroke-linejoin:miter;stroke-miterlimit:4;stroke-opacity:1;stroke-dasharray:none"
         d="m -204.44785,230.09093 c 0.0882,0.0592 0.17911,0.10892 0.26836,0.16773 0.26238,2.93586 0.32922,5.45982 0.0335,7.27939 1.13633,-0.12193 2.23682,-0.24278 3.48874,-0.26837 2.0286,-0.0414 4.46188,0.20433 7.95029,1.37537 -3.40344,-3.53608 -7.1368,-6.61944 -11.74094,-8.55412 z"
         id="path6357-6" />
      <path
         style="fill:#ffffff;fill-opacity:1;fill-rule:evenodd;stroke:#000000;stroke-width:1.52499998;stroke-linecap:butt;stroke-linejoin:miter;stroke-miterlimit:4;stroke-opacity:1;stroke-dasharray:none"
         d="m -221.11998,255.68618 c -0.10193,0.13572 -0.19781,0.26656 -0.30191,0.40255 -5.65764,2.61649 -11.90552,8.85188 -18.1146,14.79359 0.0667,0.13713 0.13445,0.26528 0.20127,0.40255 -1.00697,1.50405 -1.91613,3.02938 -2.75073,4.59573 -0.41646,0.78068 -0.79669,1.55339 -1.1741,2.34819 -0.21081,0.4439 -0.40461,0.89372 -0.60381,1.34182 -0.15923,0.35798 -0.35111,0.71289 -0.50319,1.07346 -0.004,0.009 0.004,0.0241 0,0.0336 -0.33632,0.79858 -0.63625,1.60462 -0.93927,2.41527 -0.005,0.0136 -0.0285,0.0199 -0.0335,0.0336 -0.30118,0.8073 -0.5681,1.63041 -0.83864,2.44882 -0.19106,0.57798 -0.3935,1.16122 -0.57028,1.74437 -0.0777,0.25625 -0.15978,0.51434 -0.23482,0.77155 -0.003,0.0103 0.003,0.0232 0,0.0335 -0.24242,0.83225 -0.48811,1.64064 -0.70445,2.48237 -0.005,0.0209 0.005,0.0462 0,0.0671 -0.21305,0.83151 -0.41385,1.67603 -0.60382,2.51593 -0.005,0.0213 0.005,0.0458 0,0.0671 -0.18936,0.83986 -0.36809,1.66849 -0.53673,2.51591 -0.0802,0.40329 -0.15898,0.80278 -0.23482,1.20764 -0.0881,0.46961 -0.1857,0.93731 -0.26836,1.40891 -0.006,0.0327 0.006,0.0679 0,0.10064 -0.14725,0.84396 -0.30448,1.69977 -0.43609,2.54946 -0.005,0.0328 0.005,0.0679 0,0.10064 -0.26714,1.73237 -0.52163,3.48208 -0.73801,5.2331 -0.004,0.0331 0.004,0.0675 0,0.10063 -0.2156,1.7513 -0.42001,3.50353 -0.60382,5.26666 8.83033,1.60608 17.95066,3.95169 30.59354,-6.64203 0.99373,-6.7281 5.00379,-15.37633 8.65475,-23.11287 -0.37139,0.19011 -0.75681,0.41031 -1.14055,0.63737 -4.34637,-7.88549 -6.99005,-18.05334 -8.11801,-26.93708 z"
         id="path6359-5" />
      <path
         style="fill:#ffffff;fill-opacity:1;fill-rule:evenodd;stroke:#000000;stroke-width:1.52499998;stroke-linecap:butt;stroke-linejoin:miter;stroke-miterlimit:4;stroke-opacity:1;stroke-dasharray:none"
         d="m -204.7833,280.14089 c -2.17833,0.0625 -4.47769,0.51289 -7.07812,1.84501 -3.53053,7.48133 -7.37073,15.81628 -8.52056,22.44196 9.37544,-5.1718 17.00289,-11.56946 15.59868,-24.28697 z"
         id="path6361-0" />
      <path
         style="fill:#ffffff;fill-opacity:1;fill-rule:evenodd;stroke:#000000;stroke-width:1.52499998;stroke-linecap:butt;stroke-linejoin:miter;stroke-miterlimit:4;stroke-opacity:1;stroke-dasharray:none"
         d="m -326.28528,226.93765 c -0.13398,0.17613 -0.24769,0.3512 -0.369,0.53673 -6.36372,0.78932 -10.88447,3.62398 -12.31122,6.80974 3.66136,0.21552 7.10295,0.58569 9.89594,1.37537 1.70426,-1.98175 3.73551,-3.98238 6.10529,-6.00465 -1.10839,-1.22516 -2.21377,-2.04205 -3.32101,-2.71719 z"
         id="path6365-9" />
      <path
         id="path6367-0"
         style="fill:#ffffff;fill-opacity:1;fill-rule:evenodd;stroke:#000000;stroke-width:1.52499998;stroke-linecap:butt;stroke-linejoin:miter;stroke-miterlimit:4;stroke-opacity:1;stroke-dasharray:none"
         d="m -338.66359,233.6803 c -0.11624,0.20009 -0.21072,0.40022 -0.30191,0.60382 0.0918,-0.20498 0.18474,-0.4026 0.30191,-0.60382 z m -0.30191,0.60382 c -0.0416,0.093 -0.0979,0.17481 -0.13418,0.26837 -5.49343,3.57403 -8.50762,9.01036 -8.11802,13.31758 3.16657,-1.34063 6.58878,-2.07086 11.67385,-1.74437 1.33247,-3.38159 3.39824,-6.88933 6.47429,-10.46621 -2.79299,-0.78968 -6.23458,-1.15985 -9.89594,-1.37537 z"
         sodipodi:nodetypes="csccccccc" />
      <path
         style="fill:#ffffff;fill-opacity:1;fill-rule:evenodd;stroke:#000000;stroke-width:1.52499998;stroke-linecap:butt;stroke-linejoin:miter;stroke-miterlimit:4;stroke-opacity:1;stroke-dasharray:none"
         d="m -310.61951,219.826 c -0.61072,0.15884 -0.90573,0.26836 -0.90573,0.26836 -5.19985,1.16398 -11.64653,2.7504 -14.76004,6.84329 1.10724,0.67514 2.21262,1.49203 3.32101,2.71719 2.40688,-2.05365 5.16117,-4.12368 8.35284,-6.20593 2.09526,-1.16233 3.98704,-1.95443 5.73629,-2.51591 l -1.71083,-1.107 -0.0335,0 z"
         id="path6369-0" />
      <path
         id="path6371-6"
         style="fill:#ffffff;fill-opacity:1;fill-rule:evenodd;stroke:#000000;stroke-width:1.52499998;stroke-linecap:butt;stroke-linejoin:miter;stroke-miterlimit:4;stroke-opacity:1;stroke-dasharray:none"
         d="m -339.06613,246.05861 c -3.2562,0.13048 -5.77664,0.80598 -8.15157,1.81146 0.014,0.15444 0.0106,0.31824 0.0336,0.46964 -4.01394,5.023 -4.74165,12.55528 -3.7571,19.25514 4.88588,-4.08519 9.32837,-3.61035 13.85431,-4.09256 -0.8529,-5.21406 -0.93713,-11.08222 1.54309,-17.37659 -1.27127,-0.0816 -2.43688,-0.11059 -3.52228,-0.0671 z"
         sodipodi:nodetypes="ccccccc" />
      <path
         id="path6373-1"
         style="fill:#ffffff;fill-opacity:1;fill-rule:evenodd;stroke:#000000;stroke-width:1.52499998;stroke-linecap:butt;stroke-linejoin:miter;stroke-miterlimit:4;stroke-opacity:1;stroke-dasharray:none"
         d="m -337.08695,263.50229 c -4.52594,0.48221 -8.96843,0.007 -13.85431,4.09256 0.0279,0.18984 0.0365,0.38187 0.0671,0.57027 0,4.70781 4.38548,11.43005 8.08447,15.12904 0.20041,0.28282 0.42494,0.58155 0.63737,0.87219 1.58665,-3.65889 4.01123,-5.95821 9.25857,-6.74265 -2.63012,-3.9077 -4.22551,-7.98799 -3.72356,-10.90231 0.0238,-0.0331 0.0433,-0.0676 0.0671,-0.10064 -0.20704,-0.94163 -0.37445,-1.9264 -0.53673,-2.91846 z"
         sodipodi:nodetypes="ccccccccc" />
      <path
         style="fill:#ffffff;fill-opacity:1;fill-rule:evenodd;stroke:#000000;stroke-width:1.52499998;stroke-linecap:butt;stroke-linejoin:miter;stroke-miterlimit:4;stroke-opacity:1;stroke-dasharray:none"
         d="m -332.89375,277.4237 c -5.24734,0.78444 -7.67192,3.08376 -9.25857,6.74265 2.95723,4.04539 7.09254,8.77337 13.18339,12.07639 0.89905,-3.77004 2.54349,-7.36172 5.36729,-9.42629 -3.44728,-2.23095 -6.82317,-5.72452 -9.29211,-9.39275 z"
         id="path6375-3" />
      <path
         id="path6377-8"
         style="fill:#ffffff;fill-opacity:1;fill-rule:evenodd;stroke:#000000;stroke-width:1.52499998;stroke-linecap:butt;stroke-linejoin:miter;stroke-miterlimit:4;stroke-opacity:1;stroke-dasharray:none"
         d="m -323.60164,286.81645 c -2.8238,2.06457 -4.46824,5.65625 -5.36729,9.42629 0.31905,0.17302 0.64301,0.33828 0.97283,0.50319 2.9139,3.17605 6.52082,6.13562 12.10994,8.41993 0.0955,0.1387 0.19935,0.26802 0.30191,0.40255 0.9905,-2.60979 1.83264,-4.89233 7.48065,-8.35285 -4.34421,-2.72867 -7.74293,-5.8164 -9.42629,-7.98383 -1.92005,-0.17896 -4.0081,-1.07977 -6.07175,-2.41528 z"
         sodipodi:nodetypes="cccccccc" />
      <path
         style="fill:#ffffff;fill-opacity:1;fill-rule:evenodd;stroke:#000000;stroke-width:1.52499998;stroke-linecap:butt;stroke-linejoin:miter;stroke-miterlimit:4;stroke-opacity:1;stroke-dasharray:none"
         d="m -308.1036,297.21556 c -5.64801,3.46052 -6.49015,5.74306 -7.48065,8.35285 3.55873,4.67983 11.29054,6.88615 18.11459,8.35283 -0.0412,-3.62695 1.91198,-7.47552 5.19956,-10.76811 -5.72027,-0.60565 -11.28468,-3.07986 -15.8335,-5.93757 z"
         id="path6379-9" />
      <path
         id="path6381-3"
         style="fill:#ffffff;fill-opacity:1;fill-rule:evenodd;stroke:#000000;stroke-width:1.52499998;stroke-linecap:butt;stroke-linejoin:miter;stroke-miterlimit:4;stroke-opacity:1;stroke-dasharray:none"
         d="m -286.19835,302.85122 c -0.0261,0.0666 -0.041,0.13456 -0.0671,0.20127 -2.11553,0.32304 -4.25214,0.29477 -6.37366,0.0335 0.12344,0.0148 0.2454,0.054 0.369,0.0671 -3.28758,3.29259 -5.2408,7.14117 -5.19956,10.76812 0.0208,0.004 0.0463,-0.004 0.0671,0 5.15617,3.66122 10.97598,4.95242 17.47723,5.36729 0.31935,0.15136 0.6648,0.29956 1.00637,0.43609 -0.51897,-2.98374 0.76416,-6.0513 2.68364,-8.18511 -4.05257,-2.06086 -7.20267,-5.15996 -9.96302,-8.6883 z"
         sodipodi:nodetypes="ccsccccccc" />
      <path
         style="fill:#ffffff;fill-opacity:1;fill-rule:evenodd;stroke:#000000;stroke-width:1.52499998;stroke-linecap:butt;stroke-linejoin:miter;stroke-miterlimit:4;stroke-opacity:1;stroke-dasharray:none"
         d="m -276.23533,311.53951 c -1.91948,2.13381 -3.20261,5.20138 -2.68364,8.18512 3.47752,1.39002 8.08661,2.00413 13.78722,1.91209 0.23596,0.0439 0.46903,0.0931 0.70446,0.13418 -1.25825,-2.83813 -0.23026,-5.29297 1.20764,-7.68193 -5.30242,0.23903 -9.50338,-0.75963 -13.01568,-2.54946 z"
         id="path6383-4" />
      <path
         style="fill:#ffffff;fill-opacity:1;fill-rule:evenodd;stroke:#000000;stroke-width:1.52499998;stroke-linecap:butt;stroke-linejoin:miter;stroke-miterlimit:4;stroke-opacity:1;stroke-dasharray:none"
         d="m -251.10972,311.74079 c -0.005,0.0442 0.005,0.09 0,0.13418 -4.59306,1.36998 -8.58666,2.05541 -12.10993,2.214 -1.4379,2.38896 -2.46589,4.8438 -1.20764,7.68193 10.3105,1.80084 20.09446,0.98133 29.55362,-1.476 0.61741,-0.17002 1.2065,-0.36048 1.81146,-0.53673 0.46186,-2.86396 0.3828,-5.41721 -0.53673,-7.44711 -6.4622,1.6902 -12.03994,0.42478 -17.51078,-0.57027 z"
         id="path6385-46" />
      <path
         style="fill:#ffffff;fill-opacity:1;fill-rule:evenodd;stroke:#000000;stroke-width:1.52499998;stroke-linecap:butt;stroke-linejoin:miter;stroke-miterlimit:4;stroke-opacity:1;stroke-dasharray:none"
         d="m -220.98581,305.46777 c -4.61805,3.77753 -8.77641,5.83979 -12.61313,6.84329 0.91953,2.0299 0.99859,4.58315 0.53673,7.44711 4.49443,-1.30699 8.622,-2.78318 11.6403,-4.83056 0.17214,-0.0697 0.33299,-0.16322 0.50319,-0.23482 0.8828,-3.08942 0.74798,-6.12536 -0.0671,-9.22502 z"
         id="path6387-0" />
      <path
         style="fill:#ffffff;fill-opacity:1;fill-rule:evenodd;stroke:#000000;stroke-width:1.52499998;stroke-linecap:butt;stroke-linejoin:miter;stroke-miterlimit:4;stroke-opacity:1;stroke-dasharray:none"
         d="m -204.78332,280.17443 c 1.38669,12.69468 -6.23168,19.08629 -15.59868,24.25343 -0.0392,0.22601 -0.10139,0.44897 -0.13418,0.67091 -0.15753,0.13199 -0.3139,0.24172 -0.46963,0.369 0.81507,3.09966 0.94989,6.1356 0.0671,9.22502 11.69174,-4.91935 18.8259,-14.30853 21.70397,-21.97233 0.23106,-0.79934 0.43443,-1.60155 0.63736,-2.38173 -1.43801,-4.71092 -3.57784,-7.69815 -6.20593,-10.1643 z"
         id="path6389-6" />
      <path
         style="fill:#ffffff;fill-opacity:1;fill-rule:evenodd;stroke:#000000;stroke-width:1.52499998;stroke-linecap:butt;stroke-linejoin:miter;stroke-miterlimit:4;stroke-opacity:1;stroke-dasharray:none"
         d="m -180.0267,249.37962 c 0.0455,0.0436 0.0886,0.0907 0.13418,0.13418 -23.43698,2.6076 -25.08633,20.88213 -24.72307,30.62708 -0.21879,0.004 -0.44936,0.021 -0.67091,0.0335 l 0.60382,1.24119 c -0.0265,-0.41174 -0.0541,-0.81546 -0.10064,-1.24119 2.62809,2.46615 4.76792,5.45338 6.20593,10.1643 2.95593,-11.36211 3.20231,-20.62017 8.21866,-26.06488 6.52444,-7.08161 16.86616,-4.1112 11.67385,-14.08913 0,0 -0.27488,-0.30084 -0.33546,-0.369 l -1.00636,-0.4361 z"
         id="path6391-6" />
      <path
         id="path9577-1"
         d="m -219.33489,315.4544 c -5.85896,0.24896 -12.10429,3.56777 -12.65625,3.84375 0,10e-6 -15.00596,18.39889 -16.71875,25.25 -1.71278,6.8511 -3,14.5625 -3,14.5625 -1e-5,0 -6.39958,6.4275 -8.96875,10.28125 -2.56917,3.85375 -4.28125,7.6875 -4.28125,7.6875 10e-6,0 -8.57778,5.13959 -10.71875,11.5625 -2.14098,6.42292 -3.40959,6.44347 -2.125,8.15625 1.28459,1.71276 17.54779,-2.57973 31.25,-12 13.70222,-9.42028 32.53986,-19.68806 37.25,-35.53125 4.71014,-15.84319 3.84777,-22.69876 -1.71875,-30.40625 -1.73954,-2.40859 -4.35302,-3.31582 -7.15625,-3.40625 -0.38544,-0.0124 -0.76565,-0.0166 -1.15625,0 z"
         style="fill:#ffffff;fill-opacity:1;stroke:#000000;stroke-width:1.52499998;stroke-miterlimit:4;stroke-opacity:1;stroke-dasharray:none" />
    </g>
  </g>
</svg>
